<svg xmlns="http://www.w3.org/2000/svg" xmlns:xlink="http://www.w3.org/1999/xlink" width="4700" zoomAndPan="magnify" viewBox="0 0 3524.88 1874.999927" height="2500" preserveAspectRatio="xMidYMid meet" version="1.0"><defs><clipPath id="9fcbd0b702"><path d="M 936 42 L 2479 42 L 2479 1435 L 936 1435 Z M 936 42 " clip-rule="nonzero"/></clipPath><clipPath id="68b318f743"><path d="M 2478.304688 441.109375 C 2468.820312 169.894531 2237.414062 78.859375 2237.414062 78.859375 C 1842.886719 -63.386719 1714.855469 255.242188 1714.855469 255.242188 C 1707.898438 282.425781 1701.574219 255.875 1701.574219 255.875 C 1620.964844 85.339844 1460.6875 52.304688 1460.6875 52.304688 C 1181.859375 3.941406 1035.335938 183.171875 1035.335938 183.171875 C 829.0625 415.03125 1008.304688 704.738281 1008.304688 704.738281 C 1094.609375 859.3125 1341.191406 1050.554688 1341.191406 1050.554688 C 1456.894531 1132.109375 1591.878906 1271.507812 1591.878906 1271.507812 C 1658.898438 1332.199219 1690.511719 1413.4375 1690.511719 1413.4375 C 1700.628906 1441.886719 1713.90625 1432.722656 1713.90625 1432.722656 C 1720.226562 1430.191406 1723.707031 1412.175781 1723.707031 1412.175781 C 1751.523438 1311.652344 1981.664062 1125.785156 1981.664062 1125.785156 L 2215.601562 929.171875 C 2331.304688 826.121094 2402.117188 712.324219 2402.117188 712.324219 C 2485.574219 565.023438 2478.304688 441.109375 2478.304688 441.109375 Z M 2321.820312 787.242188 L 1701.578125 787.242188 L 1702.527344 1381.828125 C 1702.527344 1381.828125 1633.292969 1248.117188 1413.269531 1082.164062 L 1414.21875 787.242188 L 1093.664062 786.292969 C 1093.664062 786.292969 979.855469 659.21875 962.785156 492.320312 L 1416.113281 492.320312 L 1414.21875 68.425781 C 1414.21875 68.425781 1611.480469 74.117188 1700.628906 306.449219 L 1701.578125 494.214844 L 2452.699219 492.320312 C 2452.699219 492.320312 2440.367188 655.425781 2321.820312 787.242188 Z M 2321.820312 787.242188 " clip-rule="nonzero"/></clipPath><linearGradient x1="1486.105206" gradientTransform="matrix(1.184159, 0, 0, 1.18406, -1030.854306, -550.106293)" y1="668.864143" x2="3110.686998" gradientUnits="userSpaceOnUse" y2="1341.457144" id="3012af691e"><stop stop-opacity="1" stop-color="rgb(71.759033%, 26.269531%, 34.509277%)" offset="0"/><stop stop-opacity="1" stop-color="rgb(71.59729%, 26.365662%, 34.671021%)" offset="0.125"/><stop stop-opacity="1" stop-color="rgb(71.316528%, 26.535034%, 34.950256%)" offset="0.132812"/><stop stop-opacity="1" stop-color="rgb(71.080017%, 26.678467%, 35.188293%)" offset="0.140625"/><stop stop-opacity="1" stop-color="rgb(70.84198%, 26.820374%, 35.426331%)" offset="0.148438"/><stop stop-opacity="1" stop-color="rgb(70.605469%, 26.963806%, 35.662842%)" offset="0.15625"/><stop stop-opacity="1" stop-color="rgb(70.367432%, 27.107239%, 35.900879%)" offset="0.164062"/><stop stop-opacity="1" stop-color="rgb(70.129395%, 27.249146%, 36.13739%)" offset="0.171875"/><stop stop-opacity="1" stop-color="rgb(69.839478%, 27.415466%, 36.428833%)" offset="0.179688"/><stop stop-opacity="1" stop-color="rgb(69.032288%, 27.799988%, 37.234497%)" offset="0.183594"/><stop stop-opacity="1" stop-color="rgb(68.399048%, 28.089905%, 37.869263%)" offset="0.1875"/><stop stop-opacity="1" stop-color="rgb(67.765808%, 28.379822%, 38.504028%)" offset="0.191406"/><stop stop-opacity="1" stop-color="rgb(67.132568%, 28.669739%, 39.138794%)" offset="0.195312"/><stop stop-opacity="1" stop-color="rgb(66.497803%, 28.959656%, 39.772034%)" offset="0.199219"/><stop stop-opacity="1" stop-color="rgb(65.864563%, 29.249573%, 40.406799%)" offset="0.203125"/><stop stop-opacity="1" stop-color="rgb(65.231323%, 29.53949%, 41.040039%)" offset="0.207031"/><stop stop-opacity="1" stop-color="rgb(64.598083%, 29.829407%, 41.674805%)" offset="0.210937"/><stop stop-opacity="1" stop-color="rgb(63.963318%, 30.119324%, 42.308044%)" offset="0.214844"/><stop stop-opacity="1" stop-color="rgb(63.330078%, 30.410767%, 42.94281%)" offset="0.21875"/><stop stop-opacity="1" stop-color="rgb(62.696838%, 30.700684%, 43.57605%)" offset="0.222656"/><stop stop-opacity="1" stop-color="rgb(62.063599%, 30.990601%, 44.210815%)" offset="0.226562"/><stop stop-opacity="1" stop-color="rgb(61.430359%, 31.280518%, 44.844055%)" offset="0.230469"/><stop stop-opacity="1" stop-color="rgb(60.797119%, 31.570435%, 45.478821%)" offset="0.234375"/><stop stop-opacity="1" stop-color="rgb(60.162354%, 31.860352%, 46.112061%)" offset="0.238281"/><stop stop-opacity="1" stop-color="rgb(59.529114%, 32.150269%, 46.746826%)" offset="0.242188"/><stop stop-opacity="1" stop-color="rgb(58.895874%, 32.440186%, 47.380066%)" offset="0.246094"/><stop stop-opacity="1" stop-color="rgb(58.262634%, 32.730103%, 48.014832%)" offset="0.25"/><stop stop-opacity="1" stop-color="rgb(57.627869%, 33.02002%, 48.648071%)" offset="0.253906"/><stop stop-opacity="1" stop-color="rgb(56.994629%, 33.309937%, 49.282837%)" offset="0.257813"/><stop stop-opacity="1" stop-color="rgb(56.50177%, 33.535767%, 49.775696%)" offset="0.261719"/><stop stop-opacity="1" stop-color="rgb(56.010437%, 33.761597%, 50.268555%)" offset="0.265625"/><stop stop-opacity="1" stop-color="rgb(55.885315%, 33.81958%, 50.392151%)" offset="0.273438"/><stop stop-opacity="1" stop-color="rgb(55.635071%, 33.937073%, 50.642395%)" offset="0.28125"/><stop stop-opacity="1" stop-color="rgb(55.384827%, 34.054565%, 50.891113%)" offset="0.289062"/><stop stop-opacity="1" stop-color="rgb(55.136108%, 34.172058%, 51.141357%)" offset="0.296875"/><stop stop-opacity="1" stop-color="rgb(54.885864%, 34.288025%, 51.390076%)" offset="0.304688"/><stop stop-opacity="1" stop-color="rgb(54.63562%, 34.405518%, 51.64032%)" offset="0.3125"/><stop stop-opacity="1" stop-color="rgb(54.385376%, 34.52301%, 51.889038%)" offset="0.320313"/><stop stop-opacity="1" stop-color="rgb(54.136658%, 34.640503%, 52.139282%)" offset="0.328125"/><stop stop-opacity="1" stop-color="rgb(53.886414%, 34.757996%, 52.388%)" offset="0.335938"/><stop stop-opacity="1" stop-color="rgb(53.636169%, 34.875488%, 52.638245%)" offset="0.34375"/><stop stop-opacity="1" stop-color="rgb(53.387451%, 34.991455%, 52.886963%)" offset="0.351562"/><stop stop-opacity="1" stop-color="rgb(53.137207%, 35.108948%, 53.137207%)" offset="0.359375"/><stop stop-opacity="1" stop-color="rgb(52.886963%, 35.22644%, 53.385925%)" offset="0.367188"/><stop stop-opacity="1" stop-color="rgb(52.636719%, 35.343933%, 53.634644%)" offset="0.375"/><stop stop-opacity="1" stop-color="rgb(52.388%, 35.461426%, 53.884888%)" offset="0.382813"/><stop stop-opacity="1" stop-color="rgb(52.137756%, 35.577393%, 54.133606%)" offset="0.390625"/><stop stop-opacity="1" stop-color="rgb(51.887512%, 35.694885%, 54.38385%)" offset="0.398438"/><stop stop-opacity="1" stop-color="rgb(51.638794%, 35.812378%, 54.632568%)" offset="0.40625"/><stop stop-opacity="1" stop-color="rgb(51.38855%, 35.929871%, 54.882812%)" offset="0.414063"/><stop stop-opacity="1" stop-color="rgb(51.138306%, 36.047363%, 55.131531%)" offset="0.421875"/><stop stop-opacity="1" stop-color="rgb(50.888062%, 36.164856%, 55.381775%)" offset="0.429688"/><stop stop-opacity="1" stop-color="rgb(50.639343%, 36.280823%, 55.630493%)" offset="0.4375"/><stop stop-opacity="1" stop-color="rgb(50.389099%, 36.398315%, 55.880737%)" offset="0.445313"/><stop stop-opacity="1" stop-color="rgb(50.138855%, 36.515808%, 56.129456%)" offset="0.453125"/><stop stop-opacity="1" stop-color="rgb(49.890137%, 36.633301%, 56.3797%)" offset="0.460938"/><stop stop-opacity="1" stop-color="rgb(49.639893%, 36.750793%, 56.628418%)" offset="0.46875"/><stop stop-opacity="1" stop-color="rgb(49.183655%, 36.955261%, 57.084656%)" offset="0.472656"/><stop stop-opacity="1" stop-color="rgb(48.854065%, 37.10022%, 57.415771%)" offset="0.476563"/><stop stop-opacity="1" stop-color="rgb(48.371887%, 37.309265%, 57.897949%)" offset="0.480469"/><stop stop-opacity="1" stop-color="rgb(47.889709%, 37.518311%, 58.380127%)" offset="0.484375"/><stop stop-opacity="1" stop-color="rgb(47.407532%, 37.727356%, 58.862305%)" offset="0.488281"/><stop stop-opacity="1" stop-color="rgb(46.92688%, 37.936401%, 59.344482%)" offset="0.492188"/><stop stop-opacity="1" stop-color="rgb(46.444702%, 38.145447%, 59.82666%)" offset="0.496094"/><stop stop-opacity="1" stop-color="rgb(45.962524%, 38.354492%, 60.308838%)" offset="0.5"/><stop stop-opacity="1" stop-color="rgb(45.480347%, 38.562012%, 60.791016%)" offset="0.503906"/><stop stop-opacity="1" stop-color="rgb(44.999695%, 38.771057%, 61.273193%)" offset="0.507813"/><stop stop-opacity="1" stop-color="rgb(44.517517%, 38.980103%, 61.755371%)" offset="0.511719"/><stop stop-opacity="1" stop-color="rgb(44.035339%, 39.189148%, 62.237549%)" offset="0.515625"/><stop stop-opacity="1" stop-color="rgb(43.553162%, 39.398193%, 62.719727%)" offset="0.519531"/><stop stop-opacity="1" stop-color="rgb(43.07251%, 39.607239%, 63.201904%)" offset="0.523438"/><stop stop-opacity="1" stop-color="rgb(42.590332%, 39.816284%, 63.684082%)" offset="0.527344"/><stop stop-opacity="1" stop-color="rgb(42.108154%, 40.02533%, 64.16626%)" offset="0.53125"/><stop stop-opacity="1" stop-color="rgb(41.625977%, 40.234375%, 64.648438%)" offset="0.535156"/><stop stop-opacity="1" stop-color="rgb(41.143799%, 40.44342%, 65.130615%)" offset="0.539063"/><stop stop-opacity="1" stop-color="rgb(40.661621%, 40.652466%, 65.612793%)" offset="0.542969"/><stop stop-opacity="1" stop-color="rgb(40.180969%, 40.861511%, 66.094971%)" offset="0.546875"/><stop stop-opacity="1" stop-color="rgb(39.698792%, 41.070557%, 66.577148%)" offset="0.550781"/><stop stop-opacity="1" stop-color="rgb(39.216614%, 41.279602%, 67.059326%)" offset="0.554688"/><stop stop-opacity="1" stop-color="rgb(38.734436%, 41.488647%, 67.541504%)" offset="0.558594"/><stop stop-opacity="1" stop-color="rgb(38.253784%, 41.697693%, 68.023682%)" offset="0.5625"/><stop stop-opacity="1" stop-color="rgb(37.756348%, 41.923523%, 68.521118%)" offset="0.566406"/><stop stop-opacity="1" stop-color="rgb(37.258911%, 42.149353%, 69.018555%)" offset="0.570313"/><stop stop-opacity="1" stop-color="rgb(36.735535%, 42.402649%, 69.541931%)" offset="0.574219"/><stop stop-opacity="1" stop-color="rgb(36.212158%, 42.657471%, 70.065308%)" offset="0.578125"/><stop stop-opacity="1" stop-color="rgb(35.688782%, 42.910767%, 70.587158%)" offset="0.582031"/><stop stop-opacity="1" stop-color="rgb(35.166931%, 43.165588%, 71.110535%)" offset="0.585938"/><stop stop-opacity="1" stop-color="rgb(34.643555%, 43.418884%, 71.632385%)" offset="0.589844"/><stop stop-opacity="1" stop-color="rgb(34.120178%, 43.673706%, 72.155762%)" offset="0.59375"/><stop stop-opacity="1" stop-color="rgb(33.596802%, 43.927002%, 72.677612%)" offset="0.597656"/><stop stop-opacity="1" stop-color="rgb(33.073425%, 44.181824%, 73.200989%)" offset="0.601563"/><stop stop-opacity="1" stop-color="rgb(32.550049%, 44.43512%, 73.724365%)" offset="0.605469"/><stop stop-opacity="1" stop-color="rgb(32.026672%, 44.689941%, 74.247742%)" offset="0.609375"/><stop stop-opacity="1" stop-color="rgb(31.503296%, 44.944763%, 74.769592%)" offset="0.613281"/><stop stop-opacity="1" stop-color="rgb(30.979919%, 45.199585%, 75.292969%)" offset="0.617188"/><stop stop-opacity="1" stop-color="rgb(30.456543%, 45.452881%, 75.814819%)" offset="0.621094"/><stop stop-opacity="1" stop-color="rgb(29.934692%, 45.707703%, 76.338196%)" offset="0.625"/><stop stop-opacity="1" stop-color="rgb(29.411316%, 45.960999%, 76.861572%)" offset="0.628906"/><stop stop-opacity="1" stop-color="rgb(28.887939%, 46.21582%, 77.384949%)" offset="0.632812"/><stop stop-opacity="1" stop-color="rgb(28.364563%, 46.469116%, 77.906799%)" offset="0.636719"/><stop stop-opacity="1" stop-color="rgb(27.841187%, 46.723938%, 78.430176%)" offset="0.640625"/><stop stop-opacity="1" stop-color="rgb(27.31781%, 46.977234%, 78.952026%)" offset="0.644531"/><stop stop-opacity="1" stop-color="rgb(26.794434%, 47.232056%, 79.475403%)" offset="0.648438"/><stop stop-opacity="1" stop-color="rgb(26.271057%, 47.485352%, 79.997253%)" offset="0.652344"/><stop stop-opacity="1" stop-color="rgb(25.749207%, 47.740173%, 80.52063%)" offset="0.65625"/><stop stop-opacity="1" stop-color="rgb(25.22583%, 47.993469%, 81.044006%)" offset="0.660156"/><stop stop-opacity="1" stop-color="rgb(24.702454%, 48.248291%, 81.567383%)" offset="0.664063"/><stop stop-opacity="1" stop-color="rgb(24.32251%, 48.432922%, 81.945801%)" offset="0.667969"/><stop stop-opacity="1" stop-color="rgb(23.942566%, 48.61908%, 82.325745%)" offset="0.671875"/><stop stop-opacity="1" stop-color="rgb(24.03717%, 48.580933%, 82.229614%)" offset="0.6875"/><stop stop-opacity="1" stop-color="rgb(24.32251%, 48.466492%, 81.944275%)" offset="0.71875"/><stop stop-opacity="1" stop-color="rgb(24.702454%, 48.313904%, 81.565857%)" offset="0.735082"/><stop stop-opacity="1" stop-color="rgb(24.893188%, 48.23761%, 81.376648%)" offset="0.75"/><stop stop-opacity="1" stop-color="rgb(25.082397%, 48.15979%, 81.185913%)" offset="0.78125"/><stop stop-opacity="1" stop-color="rgb(25.460815%, 48.007202%, 80.805969%)" offset="0.8125"/><stop stop-opacity="1" stop-color="rgb(25.764465%, 47.885132%, 80.502319%)" offset="0.875"/><stop stop-opacity="1" stop-color="rgb(25.878906%, 47.839355%, 80.389404%)" offset="1"/></linearGradient></defs><path fill="#231f20" d="M 1098.183594 1741.757812 C 1098.183594 1751.28125 1096.160156 1760.570312 1092 1770.15625 C 1082.9375 1790.785156 1062.78125 1803.066406 1051.566406 1808.542969 C 1035.34375 1816.386719 1016.527344 1820.53125 997.132812 1820.53125 C 985.367188 1820.53125 973.742188 1819.066406 962.589844 1816.183594 C 940.867188 1810.5625 922.265625 1802.257812 921.070312 1801.722656 C 916.464844 1799.890625 913.464844 1804.175781 913.464844 1804.175781 L 901.554688 1804.175781 L 901.554688 1728.5625 L 914.8125 1728.5625 L 916.125 1732.710938 C 926.117188 1766.195312 941.328125 1787.066406 962.628906 1796.554688 C 969.9375 1799.769531 978.074219 1801.902344 986.140625 1802.71875 C 988.945312 1803 991.839844 1803.144531 994.726562 1803.144531 C 1014.457031 1803.144531 1039.398438 1796.238281 1050.21875 1776.851562 C 1062.496094 1754.457031 1049.945312 1732.683594 1032.054688 1721.050781 C 1022.121094 1714.480469 1010.710938 1710.519531 1000.65625 1707.027344 L 1000.441406 1706.957031 L 988.933594 1702.851562 C 961.78125 1693.304688 930.992188 1682.476562 913.183594 1659.527344 C 896.238281 1637.542969 897.820312 1602.570312 916.78125 1579.902344 C 922.816406 1572.722656 930.613281 1566.203125 938.746094 1561.546875 C 953.8125 1552.875 972.230469 1548.476562 993.492188 1548.476562 L 993.722656 1548.476562 C 1010.261719 1548.476562 1028 1551.253906 1044.65625 1556.394531 C 1048.046875 1557.441406 1056.554688 1560.40625 1056.613281 1560.441406 C 1061.214844 1562.269531 1064.21875 1557.988281 1064.21875 1557.988281 L 1067.523438 1557.980469 L 1076.121094 1557.980469 L 1076.121094 1557.988281 L 1076.128906 1557.988281 L 1076.128906 1575.84375 L 1076.121094 1575.839844 L 1076.121094 1627.726562 L 1062.953125 1627.726562 L 1061.582031 1623.792969 C 1058.1875 1613.789062 1047.332031 1592.78125 1038.046875 1582.589844 C 1031.265625 1575.074219 1020.785156 1569.6875 1008.523438 1567.421875 C 1002.730469 1566.363281 997.199219 1565.828125 992.070312 1565.828125 C 986.515625 1565.828125 981.371094 1566.425781 976.339844 1567.652344 C 960.234375 1571.601562 942.898438 1585.269531 942.898438 1605.929688 C 942.898438 1637.398438 982.535156 1650.960938 999.460938 1656.75 L 1005.820312 1658.867188 C 1031.496094 1667.425781 1058.046875 1676.273438 1078.226562 1695.722656 C 1091.285156 1708.261719 1098.183594 1724.183594 1098.183594 1741.757812 Z M 1098.183594 1741.757812 " fill-opacity="1" fill-rule="nonzero"/><path fill="#231f20" d="M 1384.867188 1741.757812 C 1384.867188 1751.28125 1382.839844 1760.570312 1378.679688 1770.15625 C 1369.621094 1790.785156 1349.464844 1803.066406 1338.25 1808.542969 C 1322.027344 1816.386719 1303.210938 1820.53125 1283.816406 1820.53125 C 1272.046875 1820.53125 1260.421875 1819.066406 1249.273438 1816.183594 C 1227.550781 1810.5625 1208.945312 1802.257812 1207.75 1801.722656 C 1203.148438 1799.890625 1200.144531 1804.175781 1200.144531 1804.175781 L 1188.234375 1804.175781 L 1188.234375 1728.5625 L 1201.492188 1728.5625 L 1202.808594 1732.710938 C 1212.800781 1766.195312 1228.011719 1787.066406 1249.3125 1796.554688 C 1256.621094 1799.769531 1264.757812 1801.902344 1272.820312 1802.71875 C 1275.628906 1803 1278.519531 1803.144531 1281.410156 1803.144531 C 1301.140625 1803.144531 1326.078125 1796.238281 1336.902344 1776.851562 C 1349.179688 1754.457031 1336.628906 1732.683594 1318.738281 1721.050781 C 1308.800781 1714.480469 1297.394531 1710.519531 1287.339844 1707.027344 L 1287.125 1706.957031 L 1275.613281 1702.851562 C 1248.464844 1693.304688 1217.675781 1682.476562 1199.867188 1659.527344 C 1182.917969 1637.542969 1184.503906 1602.570312 1203.464844 1579.902344 C 1209.5 1572.722656 1217.296875 1566.203125 1225.429688 1561.546875 C 1240.496094 1552.875 1258.914062 1548.476562 1280.171875 1548.476562 L 1280.40625 1548.476562 C 1296.945312 1548.476562 1314.683594 1551.253906 1331.339844 1556.394531 C 1334.730469 1557.441406 1343.238281 1560.40625 1343.296875 1560.441406 C 1347.898438 1562.269531 1350.902344 1557.988281 1350.902344 1557.988281 L 1354.207031 1557.980469 L 1362.804688 1557.980469 L 1362.804688 1557.988281 L 1362.8125 1557.988281 L 1362.8125 1575.84375 L 1362.804688 1575.839844 L 1362.804688 1627.726562 L 1349.632812 1627.726562 L 1348.265625 1623.792969 C 1344.871094 1613.789062 1334.015625 1592.78125 1324.730469 1582.589844 C 1317.949219 1575.074219 1307.46875 1569.6875 1295.203125 1567.421875 C 1289.414062 1566.363281 1283.882812 1565.828125 1278.75 1565.828125 C 1273.195312 1565.828125 1268.054688 1566.425781 1263.019531 1567.652344 C 1246.917969 1571.601562 1229.578125 1585.269531 1229.578125 1605.929688 C 1229.578125 1637.398438 1269.21875 1650.960938 1286.144531 1656.75 L 1292.503906 1658.867188 C 1318.179688 1667.425781 1344.726562 1676.273438 1364.910156 1695.722656 C 1377.964844 1708.261719 1384.867188 1724.183594 1384.867188 1741.757812 Z M 1384.867188 1741.757812 " fill-opacity="1" fill-rule="nonzero"/><path fill="#231f20" d="M 1671.550781 1741.757812 C 1671.550781 1751.28125 1669.523438 1760.570312 1665.367188 1770.15625 C 1656.304688 1790.785156 1636.148438 1803.066406 1624.933594 1808.542969 C 1608.710938 1816.386719 1589.894531 1820.53125 1570.5 1820.53125 C 1558.730469 1820.53125 1547.105469 1819.066406 1535.957031 1816.183594 C 1514.234375 1810.5625 1495.628906 1802.257812 1494.433594 1801.722656 C 1489.832031 1799.890625 1486.828125 1804.175781 1486.828125 1804.175781 L 1474.917969 1804.175781 L 1474.917969 1728.5625 L 1488.175781 1728.5625 L 1489.492188 1732.710938 C 1499.484375 1766.195312 1514.695312 1787.066406 1535.996094 1796.554688 C 1543.304688 1799.769531 1551.441406 1801.902344 1559.503906 1802.71875 C 1562.3125 1803 1565.203125 1803.144531 1568.09375 1803.144531 C 1587.824219 1803.144531 1612.761719 1796.238281 1623.585938 1776.851562 C 1635.863281 1754.457031 1623.3125 1732.683594 1605.421875 1721.050781 C 1595.484375 1714.480469 1584.078125 1710.519531 1574.023438 1707.027344 L 1573.808594 1706.957031 L 1562.296875 1702.851562 C 1535.148438 1693.304688 1504.359375 1682.476562 1486.550781 1659.527344 C 1469.605469 1637.542969 1471.1875 1602.570312 1490.148438 1579.902344 C 1496.183594 1572.722656 1503.980469 1566.203125 1512.113281 1561.546875 C 1527.179688 1552.875 1545.597656 1548.476562 1566.859375 1548.476562 L 1567.089844 1548.476562 C 1583.628906 1548.476562 1601.367188 1551.253906 1618.023438 1556.394531 C 1621.414062 1557.441406 1629.921875 1560.40625 1629.980469 1560.441406 C 1634.582031 1562.269531 1637.585938 1557.988281 1637.585938 1557.988281 L 1640.890625 1557.980469 L 1649.488281 1557.980469 L 1649.488281 1557.988281 L 1649.496094 1557.988281 L 1649.496094 1575.84375 L 1649.488281 1575.839844 L 1649.488281 1627.726562 L 1636.316406 1627.726562 L 1634.949219 1623.792969 C 1631.554688 1613.789062 1620.699219 1592.78125 1611.414062 1582.589844 C 1604.632812 1575.074219 1594.152344 1569.6875 1581.886719 1567.421875 C 1576.097656 1566.363281 1570.566406 1565.828125 1565.433594 1565.828125 C 1559.878906 1565.828125 1554.738281 1566.425781 1549.707031 1567.652344 C 1533.601562 1571.601562 1516.261719 1585.269531 1516.261719 1605.929688 C 1516.261719 1637.398438 1555.902344 1650.960938 1572.828125 1656.75 L 1579.1875 1658.867188 C 1604.863281 1667.425781 1631.414062 1676.273438 1651.59375 1695.722656 C 1664.648438 1708.261719 1671.550781 1724.183594 1671.550781 1741.757812 Z M 1671.550781 1741.757812 " fill-opacity="1" fill-rule="nonzero"/><path fill="#3c7cd3" d="M 1822.890625 1592.914062 L 1822.890625 1660.476562 L 1951.816406 1660.476562 L 1951.816406 1592.867188 C 1951.816406 1580.726562 1949.84375 1572.910156 1945.789062 1568.96875 C 1943.398438 1566.675781 1940.089844 1565.554688 1935.699219 1565.554688 L 1928.550781 1565.554688 L 1928.550781 1551.535156 L 2021.332031 1551.535156 L 2021.332031 1565.554688 L 2014.285156 1565.554688 C 2009.859375 1565.554688 2006.519531 1566.683594 2004.054688 1569.015625 C 2000.054688 1572.933594 1998.070312 1580.773438 1998.023438 1592.929688 L 1998.023438 1776.125 C 1998.023438 1788.265625 1999.992188 1796.085938 2004.050781 1800.023438 C 2006.480469 1802.382812 2009.625 1803.433594 2014.238281 1803.433594 L 2021.335938 1803.433594 L 2021.335938 1817.453125 L 1928.550781 1817.453125 L 1928.550781 1803.429688 L 1935.511719 1803.429688 C 1940.101562 1803.429688 1943.453125 1802.320312 1945.769531 1800.050781 C 1949.898438 1796.035156 1951.816406 1788.4375 1951.816406 1776.125 L 1951.816406 1677.835938 L 1822.890625 1677.835938 L 1822.890625 1776.125 C 1822.890625 1788.265625 1824.859375 1796.085938 1828.917969 1800.023438 C 1831.25 1802.324219 1834.558594 1803.433594 1839.054688 1803.433594 L 1846.152344 1803.433594 L 1846.152344 1817.453125 L 1753.417969 1817.453125 L 1753.417969 1803.433594 L 1759.667969 1803.433594 C 1764.734375 1803.433594 1768.234375 1802.347656 1770.675781 1800.003906 C 1774.710938 1796.085938 1776.679688 1788.265625 1776.679688 1776.125 L 1776.679688 1592.867188 C 1776.679688 1580.597656 1774.761719 1572.996094 1770.636719 1568.949219 C 1768.257812 1566.675781 1764.925781 1565.558594 1760.464844 1565.558594 L 1753.417969 1565.558594 L 1753.417969 1551.539062 L 1846.152344 1551.539062 L 1846.152344 1565.558594 L 1838.910156 1565.558594 C 1834.703125 1565.558594 1831.25 1566.753906 1828.914062 1569.015625 C 1824.863281 1572.992188 1822.890625 1580.8125 1822.890625 1592.914062 Z M 1822.890625 1592.914062 " fill-opacity="1" fill-rule="nonzero"/><path fill="#3c7cd3" d="M 2193.328125 1817.457031 L 2100.5 1817.457031 L 2100.5 1803.4375 L 2106.953125 1803.4375 C 2111.847656 1803.4375 2115.414062 1802.300781 2117.855469 1799.960938 C 2121.851562 1796.035156 2123.808594 1788.21875 2123.808594 1776.082031 L 2123.808594 1592.921875 C 2123.808594 1580.789062 2121.847656 1572.960938 2117.816406 1569.007812 C 2115.433594 1566.695312 2112.105469 1565.5625 2107.648438 1565.5625 L 2100.5 1565.5625 L 2100.5 1551.546875 L 2218.476562 1551.546875 C 2252.5625 1551.546875 2279.082031 1560.066406 2295.175781 1576.195312 C 2307.078125 1588.121094 2313.089844 1603.679688 2313.054688 1622.4375 C 2313.054688 1645.542969 2303.304688 1664.667969 2284.859375 1677.734375 C 2266.730469 1690.582031 2240.328125 1697.371094 2208.5 1697.371094 L 2169.96875 1697.371094 L 2169.96875 1776.03125 C 2169.96875 1788.300781 2171.90625 1795.914062 2176.0625 1799.996094 C 2178.503906 1802.296875 2181.84375 1803.4375 2186.230469 1803.4375 L 2193.324219 1803.4375 L 2193.324219 1817.457031 Z M 2170.015625 1680.148438 L 2208.546875 1680.148438 C 2225.753906 1680.148438 2239.953125 1675.039062 2249.609375 1665.371094 C 2259.546875 1655.429688 2264.78125 1640.578125 2264.757812 1622.433594 C 2264.757812 1587.351562 2248.753906 1568.816406 2218.476562 1568.816406 L 2170.015625 1568.816406 Z M 2170.015625 1680.148438 " fill-opacity="1" fill-rule="nonzero"/><path fill="#3c7cd3" d="M 2565.769531 1767.589844 L 2565.804688 1767.507812 L 2569.308594 1759.5625 L 2581.246094 1759.5625 L 2581.246094 1817.445312 L 2477.597656 1817.453125 L 2389.3125 1817.453125 L 2389.3125 1803.4375 L 2395.5625 1803.4375 C 2400.628906 1803.4375 2404.125 1802.347656 2406.570312 1800.003906 C 2410.605469 1796.085938 2412.574219 1788.269531 2412.574219 1776.125 L 2412.574219 1592.867188 C 2412.574219 1580.597656 2410.652344 1572.996094 2406.53125 1568.953125 C 2404.152344 1566.675781 2400.820312 1565.558594 2396.359375 1565.558594 L 2389.3125 1565.558594 L 2389.3125 1551.539062 L 2482.046875 1551.539062 L 2482.046875 1565.558594 L 2474.804688 1565.558594 C 2470.597656 1565.558594 2467.140625 1566.753906 2464.808594 1569.015625 C 2460.761719 1572.992188 2458.789062 1580.816406 2458.789062 1592.914062 L 2458.789062 1800.054688 L 2509.371094 1800.085938 C 2540.46875 1800.085938 2556.28125 1790.972656 2565.769531 1767.589844 Z M 2565.769531 1767.589844 " fill-opacity="1" fill-rule="nonzero"/><g clip-path="url(#9fcbd0b702)"><g clip-path="url(#68b318f743)"><path fill="url(#3012af691e)" d="M 829.0625 0.03125 L 829.0625 1441.886719 L 2485.574219 1441.886719 L 2485.574219 0.03125 Z M 829.0625 0.03125 " fill-rule="nonzero"/></g></g></svg>