<?xml version="1.0" encoding="utf-8"?>
<!-- Generator: Adobe Illustrator 26.0.1, SVG Export Plug-In . SVG Version: 6.00 Build 0)  -->
<svg version="1.1" id="Layer_1" xmlns="http://www.w3.org/2000/svg" xmlns:xlink="http://www.w3.org/1999/xlink" x="0px" y="0px"
	 viewBox="0 0 4700 2500" enable-background="new 0 0 4700 2500" xml:space="preserve">
<g>
	<path fill="#231F20" d="M1797.932,1935.597c0,8.046-1.71,15.891-5.223,23.984c-7.651,17.425-24.674,27.795-34.143,32.422
		c-13.7,6.624-29.591,10.123-45.968,10.123c-9.939,0-19.756-1.236-29.171-3.671c-18.345-4.749-34.056-11.76-35.065-12.213
		c-3.887-1.548-6.423,2.073-6.423,2.073h-10.058v-63.86h11.196l1.11,3.502c8.438,28.281,21.283,45.907,39.272,53.921
		c6.171,2.715,13.042,4.515,19.853,5.205c2.371,0.237,4.813,0.359,7.252,0.359c16.664,0,37.724-5.833,46.862-22.206
		c10.37-18.912-0.23-37.3-15.338-47.125c-8.391-5.55-18.025-8.894-26.517-11.843l-0.18-0.062l-9.72-3.466
		c-22.928-8.064-48.928-17.206-63.968-36.589c-14.311-18.567-12.975-48.105,3.039-67.247c5.097-6.063,11.681-11.57,18.549-15.503
		c12.723-7.324,28.277-11.038,46.23-11.038h0.197c13.966,0,28.945,2.345,43.012,6.685c2.863,0.884,10.047,3.391,10.097,3.42
		c3.887,1.544,6.423-2.073,6.423-2.073l2.791-0.007h7.259v0.007h0.007v15.08l-0.007-0.004v43.823h-11.121l-1.157-3.322
		c-2.867-8.449-12.034-26.193-19.875-34.8c-5.726-6.347-14.577-10.895-24.933-12.809c-4.889-0.895-9.562-1.347-13.894-1.347
		c-4.691,0-9.034,0.506-13.284,1.541c-13.6,3.337-28.241,14.878-28.241,32.329c0,26.574,33.475,38.029,47.767,42.918l5.371,1.789
		c21.682,7.227,44.103,14.702,61.147,31.125C1792.105,1907.309,1797.932,1920.755,1797.932,1935.597z"/>
	<path fill="#231F20" d="M2040.03,1935.597c0,8.046-1.71,15.891-5.223,23.984c-7.651,17.425-24.674,27.795-34.143,32.422
		c-13.7,6.624-29.591,10.123-45.968,10.123c-9.939,0-19.756-1.236-29.171-3.671c-18.345-4.749-34.056-11.76-35.065-12.213
		c-3.887-1.548-6.423,2.073-6.423,2.073h-10.058v-63.86h11.196l1.11,3.502c8.438,28.281,21.283,45.907,39.272,53.921
		c6.171,2.715,13.042,4.515,19.853,5.205c2.371,0.237,4.813,0.359,7.252,0.359c16.664,0,37.724-5.833,46.862-22.206
		c10.37-18.912-0.23-37.3-15.338-47.125c-8.391-5.55-18.025-8.894-26.517-11.843l-0.18-0.062l-9.72-3.466
		c-22.928-8.064-48.928-17.206-63.968-36.589c-14.311-18.567-12.975-48.105,3.039-67.247c5.097-6.063,11.681-11.57,18.549-15.503
		c12.723-7.324,28.277-11.038,46.23-11.038h0.197c13.966,0,28.945,2.345,43.012,6.685c2.863,0.884,10.047,3.391,10.097,3.42
		c3.887,1.544,6.423-2.073,6.423-2.073l2.791-0.007h7.259v0.007h0.007v15.08l-0.007-0.004v43.823h-11.121l-1.157-3.322
		c-2.867-8.449-12.034-26.193-19.875-34.8c-5.726-6.347-14.577-10.895-24.933-12.809c-4.889-0.895-9.562-1.347-13.894-1.347
		c-4.691,0-9.034,0.506-13.284,1.541c-13.6,3.337-28.241,14.878-28.241,32.329c0,26.574,33.475,38.029,47.767,42.918l5.371,1.789
		c21.682,7.227,44.103,14.702,61.147,31.125C2034.203,1907.309,2040.03,1920.755,2040.03,1935.597z"/>
	<path fill="#231F20" d="M2282.129,1935.597c0,8.046-1.71,15.891-5.223,23.984c-7.651,17.425-24.674,27.795-34.143,32.422
		c-13.7,6.624-29.591,10.123-45.968,10.123c-9.939,0-19.756-1.236-29.171-3.671c-18.345-4.749-34.056-11.76-35.065-12.213
		c-3.887-1.548-6.423,2.073-6.423,2.073h-10.058v-63.86h11.196l1.11,3.502c8.438,28.281,21.283,45.907,39.272,53.921
		c6.171,2.715,13.042,4.515,19.853,5.205c2.371,0.237,4.813,0.359,7.252,0.359c16.664,0,37.724-5.833,46.862-22.206
		c10.37-18.912-0.23-37.3-15.338-47.125c-8.391-5.55-18.025-8.894-26.517-11.843l-0.18-0.062l-9.72-3.466
		c-22.928-8.064-48.928-17.206-63.968-36.589c-14.311-18.567-12.975-48.105,3.039-67.247c5.097-6.063,11.681-11.57,18.549-15.503
		c12.723-7.324,28.277-11.038,46.23-11.038h0.197c13.966,0,28.945,2.345,43.012,6.685c2.863,0.884,10.047,3.391,10.097,3.42
		c3.887,1.544,6.423-2.073,6.423-2.073l2.791-0.007h7.259v0.007h0.007v15.08l-0.007-0.004v43.823h-11.121l-1.157-3.322
		c-2.867-8.449-12.034-26.193-19.875-34.8c-5.726-6.347-14.577-10.895-24.933-12.809c-4.889-0.895-9.562-1.347-13.894-1.347
		c-4.691,0-9.034,0.506-13.284,1.541c-13.6,3.337-28.241,14.878-28.241,32.329c0,26.574,33.475,38.029,47.767,42.918l5.371,1.789
		c21.682,7.227,44.103,14.702,61.147,31.125C2276.302,1907.309,2282.129,1920.755,2282.129,1935.597z"/>
	<path fill="#3C7CD3" d="M2409.934,1809.892v57.06h108.875v-57.1c0-10.252-1.667-16.854-5.09-20.184
		c-2.019-1.937-4.813-2.881-8.521-2.881h-6.038v-11.84h78.354v11.84h-5.952c-3.736,0-6.559,0.952-8.639,2.92
		c-3.38,3.312-5.054,9.932-5.093,20.198v154.718c0,10.255,1.663,16.858,5.09,20.184c2.051,1.994,4.706,2.881,8.603,2.881h5.992
		v11.839h-78.354v-11.843h5.88c3.875,0,6.706-0.938,8.66-2.855c3.488-3.391,5.108-9.806,5.108-20.206v-83.009h-108.875v83.009
		c0,10.255,1.663,16.858,5.09,20.184c1.969,1.943,4.763,2.881,8.56,2.881h5.992v11.839h-78.311v-11.839h5.277
		c4.278,0,7.234-0.919,9.296-2.899c3.409-3.308,5.072-9.911,5.072-20.166v-154.771c0-10.363-1.62-16.782-5.104-20.198
		c-2.008-1.922-4.824-2.866-8.589-2.866h-5.952v-11.84h78.311v11.84h-6.114c-3.553,0-6.469,1.009-8.441,2.92
		C2411.6,1793.067,2409.934,1799.673,2409.934,1809.892z"/>
	<path fill="#3C7CD3" d="M2722.759,1999.529h-78.39v-11.839h5.449c4.134,0,7.145-0.959,9.207-2.935
		c3.376-3.315,5.029-9.917,5.029-20.169V1809.9c0-10.249-1.656-16.858-5.061-20.198c-2.012-1.954-4.824-2.91-8.589-2.91h-6.035
		v-11.836h99.63c28.783,0,51.18,7.195,64.769,20.816c10.051,10.072,15.13,23.212,15.098,39.053c0,19.516-8.233,35.666-23.809,46.704
		c-15.309,10.848-37.605,16.581-64.485,16.581h-32.537v66.435c0,10.363,1.634,16.793,5.144,20.238
		c2.062,1.943,4.882,2.906,8.589,2.906h5.991V1999.529z M2703.074,1883.566h32.537c14.534,0,26.524-4.314,34.678-12.479
		c8.391-8.398,12.813-20.941,12.792-36.265c0-29.627-13.513-45.282-39.082-45.282h-40.925V1883.566z"/>
	<path fill="#3C7CD3" d="M3037.28,1957.415l0.029-0.068l2.959-6.71h10.083v48.884l-87.531,0.007h-74.554v-11.839h5.277
		c4.278,0,7.231-0.919,9.296-2.899c3.409-3.308,5.072-9.911,5.072-20.166v-154.771c0-10.363-1.624-16.782-5.104-20.198
		c-2.008-1.922-4.824-2.866-8.589-2.866h-5.952v-11.84h78.311v11.84h-6.114c-3.553,0-6.473,1.009-8.441,2.92
		c-3.42,3.359-5.086,9.965-5.086,20.184v174.941l42.717,0.025C3015.914,1984.859,3029.269,1977.164,3037.28,1957.415z"/>
</g>
<linearGradient id="SVGID_1_" gradientUnits="userSpaceOnUse" x1="1671.8834" y1="745.7775" x2="2836.4541" y2="1227.9219">
	<stop  offset="4.804464e-04" style="stop-color:#B74358"/>
	<stop  offset="0.0903" style="stop-color:#B2465D"/>
	<stop  offset="0.2077" style="stop-color:#8F5680"/>
	<stop  offset="0.4991" style="stop-color:#7E5E91"/>
	<stop  offset="0.6319" style="stop-color:#606BAF"/>
	<stop  offset="0.7755" style="stop-color:#3D7CD2"/>
	<stop  offset="1" style="stop-color:#427ACD"/>
</linearGradient>
<path fill="url(#SVGID_1_)" d="M2963.417,837.134c-8.009-229.055-203.427-305.941-203.427-305.941
	c-333.172-120.134-441.292,148.966-441.292,148.966c-5.873,22.959-11.213,0.534-11.213,0.534
	c-68.076-144.027-203.427-171.925-203.427-171.925c-235.462-40.845-359.2,110.523-359.2,110.523
	c-174.194,195.818-22.826,440.491-22.826,440.491c72.881,130.546,281.114,292.059,281.114,292.059
	c97.709,68.877,211.703,186.608,211.703,186.608c56.596,51.257,83.293,119.867,83.293,119.867
	c8.543,24.027,19.755,16.285,19.755,16.285c5.339-2.136,8.276-17.353,8.276-17.353c23.493-84.895,217.843-241.87,217.843-241.87
	l197.554-166.052c97.709-87.03,157.509-183.138,157.509-183.138C2969.557,941.784,2963.417,837.134,2963.417,837.134z
	 M2831.27,1129.46h-523.784l0.801,502.16c0,0-58.465-112.926-244.272-253.082l0.801-249.078l-270.702-0.801
	c0,0-96.107-107.32-110.523-248.277h382.827l-1.602-357.999c0,0,166.586,4.805,241.87,201.024l0.801,158.577l634.307-1.602
	C2941.793,880.383,2931.381,1018.136,2831.27,1129.46z"/>
<g>
</g>
<g>
</g>
<g>
</g>
<g>
</g>
<g>
</g>
<g>
</g>
</svg>
