<svg width="20" height="21" viewBox="0 0 20 21" fill="none" xmlns="http://www.w3.org/2000/svg">
<g clip-path="url(#clip0_562_243)">
<mask id="mask0_562_243" style="mask-type:luminance" maskUnits="userSpaceOnUse" x="0" y="0" width="20" height="21">
<path d="M20 21V0H0V21H20Z" fill="white"/>
</mask>
<g mask="url(#mask0_562_243)">
<mask id="mask1_562_243" style="mask-type:luminance" maskUnits="userSpaceOnUse" x="0" y="0" width="20" height="21">
<path d="M0 21H20V0H0V21Z" fill="white"/>
</mask>
<g mask="url(#mask1_562_243)">
<mask id="mask2_562_243" style="mask-type:luminance" maskUnits="userSpaceOnUse" x="0" y="0" width="20" height="21">
<path d="M0 21H20V0H0V21Z" fill="white"/>
</mask>
<g mask="url(#mask2_562_243)">
<path d="M0.29489 105C0.102187 84.6037 0.0312865 68.559 0.0067885 52.4937L49.998 -0.0011201H30.5098C53.1689 -0.0198094 72.3054 -0.0325227 100 0.31881V105H0.29489ZM20.0029 -0.0011201H30.5098C26.9545 0.00181989 23.3125 0.00423115 19.5371 0.00612172C19.692 0.0023406 19.8472 -0.0011201 20.0029 -0.0011201ZM19.4863 0.007067C8.67939 0.294873 0.00288988 9.58233 0.00288988 20.9989V48.1451C-0.0122087 33.528 0.00408769 18.5693 -9.2925e-06 -7.06771e-05C6.97219 0.00916585 13.4026 0.0101111 19.4863 0.007067ZM0.00288988 48.1451C0.00439287 49.597 0.00459123 51.0455 0.0067885 52.4937L0.00288988 52.4969V48.1451Z" fill="#FCFFEF"/>
</g>
</g>
</g>
</g>
<defs>
<clipPath id="clip0_562_243">
<rect width="20" height="21" fill="white"/>
</clipPath>
</defs>
</svg>
